<svg width="16" height="22" viewBox="0 0 16 22" fill="none" xmlns="http://www.w3.org/2000/svg">
<path opacity="0.4" d="M12.0837 9.17559L8.04688 5.12745C8.30864 4.59577 8.5221 3.8588 9.0029 3.46941C9.99656 2.66467 11.3518 2.56689 12.4386 3.12898C13.0615 3.45109 12.8309 4.30448 12.2558 4.7081C11.0688 5.54117 9.98546 7.0715 12.0837 9.17559Z" fill="white"/>
<path opacity="0.4" d="M8.04728 5.12685L4.38746 1.45671C3.78021 0.847762 2.79568 0.847762 2.18844 1.45671C1.5812 2.06567 1.5812 3.05298 2.18844 3.66193L6.58648 8.07236C5.97923 7.4634 4.9947 7.4634 4.38746 8.07236C3.78021 8.68131 3.78021 9.66862 4.38746 10.2776L5.12046 11.0126C4.51322 10.4037 3.52869 10.4037 2.92144 11.0126C2.3142 11.6216 2.3142 12.6089 2.92144 13.2179L3.65445 13.9529C3.04721 13.344 2.06267 13.344 1.45543 13.9529C0.848189 14.5619 0.848189 15.5492 1.45543 16.1581L4.02095 18.7309C10.5557 25.2841 19.0698 16.1805 12.817 9.91004L12.0841 9.17499L8.04728 5.12685Z" fill="white"/>
<path d="M4.38746 1.45671L3.85638 1.9863V1.9863L4.38746 1.45671ZM8.04728 5.12685L7.5162 5.65643L8.04728 5.12685ZM12.0841 9.17499L12.6151 8.64541V8.64541L12.0841 9.17499ZM12.817 9.91004L12.286 10.4396V10.4396L12.817 9.91004ZM2.18844 1.45671L2.71951 1.9863L2.18844 1.45671ZM2.18844 3.66193L2.71951 3.13235H2.71951L2.18844 3.66193ZM6.58648 8.07236L6.0554 8.60194L6.58648 8.07236ZM4.38746 10.2776L3.85638 10.8072L4.38746 10.2776ZM2.92144 11.0126L2.39037 10.4831H2.39037L2.92144 11.0126ZM5.12046 11.0126L5.65154 10.4831L5.65154 10.4831L5.12046 11.0126ZM2.92144 13.2179L2.39037 13.7474L2.92144 13.2179ZM4.02095 18.7309L4.55203 18.2013L4.02095 18.7309ZM1.45543 16.1581L0.924356 16.6877H0.924356L1.45543 16.1581ZM3.65445 13.9529L4.18553 13.4233L3.65445 13.9529ZM12.2562 4.7075L11.8253 4.09361L11.8253 4.09361L12.2562 4.7075ZM12.439 3.12838L12.0945 3.79456L12.439 3.12838ZM9.00331 3.46881L9.47533 4.05165V4.05165L9.00331 3.46881ZM4.11718 15.4791C4.40966 15.7724 4.88453 15.7731 5.17784 15.4806C5.47114 15.1881 5.47181 14.7133 5.17933 14.4199L4.64825 14.9495L4.11718 15.4791ZM8.56187 11.1155C8.85435 11.4088 9.32922 11.4094 9.62253 11.117C9.91583 10.8245 9.9165 10.3496 9.62402 10.0563L9.09294 10.5859L8.56187 11.1155ZM6.33952 13.2973C6.632 13.5906 7.10688 13.5913 7.40018 13.2988C7.69349 13.0063 7.69415 12.5314 7.40167 12.2381L6.8706 12.7677L6.33952 13.2973ZM4.38746 1.45671L3.85638 1.9863L7.5162 5.65643L8.04728 5.12685L8.57835 4.59726L4.91853 0.927131L4.38746 1.45671ZM8.04728 5.12685L7.5162 5.65643L11.553 9.70458L12.0841 9.17499L12.6151 8.64541L8.57835 4.59726L8.04728 5.12685ZM12.0841 9.17499L11.553 9.70458L12.286 10.4396L12.817 9.91004L13.3481 9.38045L12.6151 8.64541L12.0841 9.17499ZM2.18844 1.45671L2.71951 1.9863C3.03369 1.67123 3.5422 1.67123 3.85638 1.9863L4.38746 1.45671L4.91853 0.927131C4.01823 0.0242897 2.55767 0.0242895 1.65736 0.927131L2.18844 1.45671ZM2.18844 3.66193L2.71951 3.13235C2.40417 2.81611 2.40417 2.30253 2.71951 1.9863L2.18844 1.45671L1.65736 0.927131C0.758221 1.82881 0.758221 3.28984 1.65736 4.19151L2.18844 3.66193ZM4.38746 8.07236L4.91853 8.60194C5.23271 8.28688 5.74122 8.28688 6.0554 8.60194L6.58648 8.07236L7.11755 7.54277C6.21725 6.63993 4.75669 6.63993 3.85638 7.54277L4.38746 8.07236ZM4.38746 10.2776L4.91853 9.74799C4.60319 9.43176 4.60319 8.91817 4.91853 8.60194L4.38746 8.07236L3.85638 7.54277C2.95724 8.44445 2.95724 9.90548 3.85638 10.8072L4.38746 10.2776ZM2.92144 11.0126L3.45252 11.5422C3.7667 11.2272 4.27521 11.2272 4.58939 11.5422L5.12046 11.0126L5.65154 10.4831C4.75123 9.58022 3.29067 9.58022 2.39037 10.4831L2.92144 11.0126ZM2.92144 13.2179L3.45252 12.6883C3.13718 12.372 3.13718 11.8585 3.45252 11.5422L2.92144 11.0126L2.39037 10.4831C1.49123 11.3847 1.49123 12.8458 2.39037 13.7474L2.92144 13.2179ZM4.02095 18.7309L4.55203 18.2013L1.98651 15.6286L1.45543 16.1581L0.924356 16.6877L3.48988 19.2605L4.02095 18.7309ZM1.45543 13.9529L1.98651 14.4825C2.30069 14.1674 2.8092 14.1674 3.12337 14.4825L3.65445 13.9529L4.18553 13.4233C3.28522 12.5205 1.82466 12.5205 0.924356 13.4233L1.45543 13.9529ZM1.45543 16.1581L1.98651 15.6286C1.67116 15.3123 1.67116 14.7987 1.98651 14.4825L1.45543 13.9529L0.924356 13.4233C0.0252148 14.325 0.0252144 15.7861 0.924356 16.6877L1.45543 16.1581ZM2.18844 3.66193L1.65736 4.19151L6.0554 8.60194L6.58648 8.07236L7.11755 7.54277L2.71951 3.13235L2.18844 3.66193ZM4.38746 10.2776L3.85638 10.8072L4.58939 11.5422L5.12046 11.0126L5.65154 10.4831L4.91853 9.74799L4.38746 10.2776ZM2.92144 13.2179L2.39037 13.7474L3.12337 14.4825L3.65445 13.9529L4.18553 13.4233L3.45252 12.6883L2.92144 13.2179ZM12.2562 4.7075L11.8253 4.09361C11.1685 4.55461 10.4183 5.28785 10.2041 6.31095C9.97811 7.39057 10.3945 8.5428 11.553 9.70458L12.0841 9.17499L12.6151 8.64541C11.6755 7.70309 11.5844 7.03811 11.6723 6.61828C11.772 6.14192 12.1569 5.69346 12.687 5.32139L12.2562 4.7075ZM12.439 3.12838L12.7835 2.46219C11.4433 1.76908 9.7661 1.88593 8.53129 2.88598L9.00331 3.46881L9.47533 4.05165C10.2278 3.44221 11.261 3.36349 12.0945 3.79456L12.439 3.12838ZM3.65445 13.9529L3.12337 14.4825L4.11718 15.4791L4.64825 14.9495L5.17933 14.4199L4.18553 13.4233L3.65445 13.9529ZM6.58648 8.07236L6.0554 8.60194L8.56187 11.1155L9.09294 10.5859L9.62402 10.0563L7.11755 7.54277L6.58648 8.07236ZM5.12046 11.0126L4.58939 11.5422L6.33952 13.2973L6.8706 12.7677L7.40167 12.2381L5.65154 10.4831L5.12046 11.0126ZM12.2562 4.7075L12.687 5.32139C13.1243 5.01451 13.4482 4.53096 13.5362 4.01304C13.631 3.45553 13.442 2.80273 12.7835 2.46219L12.439 3.12838L12.0945 3.79456C12.1047 3.79984 12.0811 3.78748 12.0658 3.75224C12.0544 3.72578 12.0639 3.7237 12.0574 3.76171C12.0509 3.80006 12.0307 3.85885 11.9873 3.92522C11.9445 3.9906 11.8881 4.04956 11.8253 4.09361L12.2562 4.7075ZM9.00331 3.46881L8.53129 2.88598C8.1615 3.18545 7.92964 3.58684 7.76921 3.91539C7.68679 4.08416 7.61357 4.25492 7.55024 4.40251C7.48397 4.55696 7.42954 4.6836 7.37441 4.79556L8.04728 5.12685L8.72015 5.45813C8.79591 5.30426 8.86631 5.1394 8.92871 4.99396C8.99406 4.84166 9.05333 4.70416 9.1171 4.57356C9.24904 4.30335 9.36431 4.14156 9.47533 4.05165L9.00331 3.46881ZM12.817 9.91004L12.286 10.4396C15.1033 13.2649 14.5752 16.6405 12.6748 18.6083C11.717 19.6001 10.4193 20.2233 9.01765 20.2492C7.62772 20.2748 6.06066 19.7142 4.55203 18.2013L4.02095 18.7309L3.48988 19.2605C5.24863 21.0242 7.19637 21.783 9.04534 21.7489C10.8826 21.715 12.5479 20.8991 13.7538 19.6503C16.181 17.137 16.7835 12.8256 13.3481 9.38045L12.817 9.91004Z" fill="white"/>
</svg>
