<svg width="18" height="18" viewBox="0 0 18 18" fill="none" xmlns="http://www.w3.org/2000/svg">
<path opacity="0.4" d="M1.08333 8.99998C1.08333 5.26803 1.08333 3.40205 2.2427 2.24268C3.40207 1.08331 5.26804 1.08331 8.99999 1.08331C12.7319 1.08331 14.5979 1.08331 15.7573 2.24268C16.9167 3.40205 16.9167 5.26803 16.9167 8.99998C16.9167 12.7319 16.9167 14.5979 15.7573 15.7573C14.5979 16.9166 12.7319 16.9166 8.99999 16.9166C5.26804 16.9166 3.40207 16.9166 2.2427 15.7573C1.08333 14.5979 1.08333 12.7319 1.08333 8.99998Z" fill="#DAD2FF"/>
<path d="M12.3333 7.33331L13.3555 8.21431C13.7851 8.58468 14 8.76986 14 8.99998C14 9.2301 13.7852 9.41528 13.3555 9.78565L12.3333 10.6666" stroke="#4A10A2" stroke-width="1.5" stroke-linecap="round" stroke-linejoin="round"/>
<path d="M5.66667 7.33331L4.64455 8.21431C4.21485 8.58468 4 8.76986 4 8.99998C4 9.2301 4.21485 9.41528 4.64455 9.78565L5.66667 10.6666" stroke="#4A10A2" stroke-width="1.5" stroke-linecap="round" stroke-linejoin="round"/>
<path d="M9.83334 6.5L8.16667 11.5" stroke="#4A10A2" stroke-width="1.5" stroke-linecap="round" stroke-linejoin="round"/>
<path d="M1.08333 8.99998C1.08333 5.26803 1.08333 3.40205 2.2427 2.24268C3.40207 1.08331 5.26804 1.08331 8.99999 1.08331C12.7319 1.08331 14.5979 1.08331 15.7573 2.24268C16.9167 3.40205 16.9167 5.26803 16.9167 8.99998C16.9167 12.7319 16.9167 14.5979 15.7573 15.7573C14.5979 16.9166 12.7319 16.9166 8.99999 16.9166C5.26804 16.9166 3.40207 16.9166 2.2427 15.7573C1.08333 14.5979 1.08333 12.7319 1.08333 8.99998Z" stroke="#4A10A2" stroke-width="1.5"/>
</svg>
