<svg width="117" height="28" viewBox="0 0 117 28" fill="none" xmlns="http://www.w3.org/2000/svg">
<path d="M14.0195 14.0193H21.6696L21.5754 14.3207C21.0478 16.0166 20.1057 17.5805 18.8432 18.8429C17.5808 20.1054 16.0168 21.0475 14.321 21.5751L14.0195 21.6693V14.0193Z" fill="url(#paint0_linear_70_398)"/>
<path d="M9.42176 8.5918V5.14363L9.59134 5.10594C10.0624 4.99289 10.5523 4.93637 11.0234 4.93637C11.5133 4.93637 12.0032 4.99289 12.4554 5.10594L12.625 5.14363V8.5918H9.42176Z" fill="#1B1F3B"/>
<path d="M11.0228 22.0645C10.5518 22.0645 10.0807 22.0268 9.60964 21.9703C7.17896 21.6688 4.9744 20.576 3.22205 18.8236C1.13055 16.7321 0 13.9623 0 11.0228C0 8.08342 1.14939 5.31357 3.22205 3.22206C5.31356 1.13054 8.0834 -1.90735e-06 11.0228 -1.90735e-06C13.9622 -1.90735e-06 16.7321 1.14938 18.8236 3.22206C20.5759 4.97441 21.6499 7.17898 21.9703 9.60966C22.0268 10.0807 22.0645 10.5518 22.0645 11.0228C22.0645 11.4939 22.0268 11.965 21.9703 12.436L21.9514 12.6433H12.6433V21.9515L12.436 21.9703C11.9838 22.0457 11.4939 22.0645 11.0228 22.0645ZM11.0228 3.24091C6.72674 3.24091 3.22205 6.7456 3.22205 11.0417C3.22205 14.7536 5.80347 17.9192 9.40237 18.6729V12.6621H5.12514L5.08745 12.4926C4.9744 12.0215 4.91787 11.5316 4.91787 11.0605C4.91787 10.5706 4.9744 10.0807 5.08745 9.6285L5.12514 9.45892H18.654C17.9003 5.82232 14.7348 3.24091 11.0228 3.24091Z" fill="#1B1F3B"/>
<path d="M39.5497 9.81724C40.1715 11.0232 40.4918 12.4552 40.4918 14.0756C40.4918 15.6584 40.1715 17.0528 39.5497 18.2775C38.9279 19.4834 38.0423 20.4256 36.9306 21.085C35.8189 21.7445 34.5376 22.0837 33.1245 22.0837C31.9562 22.0837 30.9576 21.8764 30.1097 21.4431C29.2618 21.0097 28.5834 20.4444 28.0747 19.7095V28.0002H24.7773V6.27485H27.6413L28.037 8.59248C29.2994 6.9155 30.9953 6.08643 33.1245 6.08643C34.5565 6.08643 35.8189 6.40675 36.9306 7.04739C38.0612 7.68804 38.9279 8.61132 39.5497 9.81724ZM37.1567 14.0756C37.1567 12.5306 36.7422 11.287 35.8943 10.326C35.0464 9.36502 33.9535 8.89396 32.578 8.89396C31.2214 8.89396 30.1097 9.36503 29.2806 10.3072C28.4515 11.2493 28.037 12.4929 28.037 14.0191C28.037 15.583 28.4515 16.8643 29.2806 17.8253C30.1097 18.8051 31.2214 19.295 32.578 19.295C33.9347 19.295 35.0464 18.8051 35.8943 17.8253C36.7234 16.8455 37.1567 15.6019 37.1567 14.0756Z" fill="#1B1F3B"/>
<path d="M41.3214 9.15751V6.27461H44.0347V1.90315H47.351V6.27461H51.1006V9.17636H47.351V17.3163C47.351 17.9193 47.464 18.3526 47.709 18.6164C47.9539 18.8614 48.3685 18.9933 48.9526 18.9933H51.4586V21.895H48.2931C46.8045 21.895 45.7305 21.5559 45.0522 20.8587C44.3739 20.1615 44.0347 19.1063 44.0347 17.6555V9.17636H41.3214V9.15751Z" fill="#1B1F3B"/>
<path d="M56.9224 1.99697C56.9224 2.56225 56.734 3.03331 56.3383 3.41016C55.9426 3.78701 55.4716 3.97543 54.9063 3.97543C54.341 3.97543 53.8511 3.78701 53.4743 3.41016C53.0786 3.03331 52.8902 2.56225 52.8902 1.99697C52.8902 1.4317 53.0786 0.960638 53.4743 0.583789C53.87 0.206939 54.341 0.0185146 54.9063 0.0185146C55.4716 0.0185146 55.9615 0.206939 56.3383 0.583789C56.734 0.960638 56.9224 1.4317 56.9224 1.99697ZM56.5456 6.27422V21.8946H53.2482V6.27422H56.5456Z" fill="#1B1F3B"/>
<path d="M60.2024 18.2775C59.5429 17.0716 59.2037 15.6773 59.2037 14.0756C59.2037 12.5117 59.5429 11.1174 60.2024 9.91145C60.8618 8.70553 61.804 7.76341 63.0099 7.08508C64.2158 6.40675 65.6101 6.08643 67.1741 6.08643C68.738 6.08643 70.1323 6.42559 71.3382 7.08508C72.5441 7.76341 73.4863 8.70553 74.1458 9.91145C74.8052 11.1174 75.1444 12.5117 75.1444 14.0756C75.1444 15.6584 74.8052 17.0528 74.1458 18.2775C73.4863 19.4834 72.5441 20.4256 71.3382 21.085C70.1323 21.7445 68.738 22.0837 67.1741 22.0837C65.6101 22.0837 64.2158 21.7445 63.0099 21.085C61.804 20.4256 60.8618 19.4834 60.2024 18.2775ZM71.7716 14.0756C71.7716 12.5494 71.3571 11.3058 70.5092 10.3448C69.6613 9.38386 68.5496 8.89396 67.1741 8.89396C65.7986 8.89396 64.6869 9.38386 63.8578 10.3448C63.0287 11.3058 62.6142 12.5494 62.6142 14.0756C62.6142 15.6019 63.0287 16.8455 63.8578 17.8065C64.6869 18.7674 65.7986 19.2573 67.1741 19.2573C68.5496 19.2573 69.6613 18.7674 70.5092 17.8065C71.3571 16.8455 71.7716 15.6019 71.7716 14.0756Z" fill="#1B1F3B"/>
<path d="M92.3097 13.2843V21.8953H88.9935V13.4727C88.9935 11.9841 88.6731 10.8536 88.0513 10.081C87.4295 9.3085 86.4874 8.9128 85.2815 8.9128C83.9814 8.9128 82.9639 9.36502 82.2102 10.2695C81.4753 11.1739 81.0985 12.4175 81.0985 14.0003V21.8764H77.8011V6.27485H80.6651L81.0231 8.30984C82.2102 6.82128 83.8683 6.08643 86.0352 6.08643C87.8818 6.08643 89.3892 6.6517 90.5574 7.80109C91.7256 8.93164 92.3097 10.7594 92.3097 13.2843Z" fill="#1B1F3B"/>
<path d="M98.9611 1.99697C98.9611 2.56225 98.7727 3.03331 98.377 3.41016C97.9813 3.78701 97.5103 3.97543 96.945 3.97543C96.3797 3.97543 95.8898 3.78701 95.513 3.41016C95.1173 3.03331 94.9289 2.56225 94.9289 1.99697C94.9289 1.4317 95.1173 0.960638 95.513 0.583789C95.9087 0.206939 96.3797 0.0185146 96.945 0.0185146C97.5103 0.0185146 98.0002 0.206939 98.377 0.583789C98.7727 0.960638 98.9611 1.4317 98.9611 1.99697ZM98.6031 6.27422V21.8946H95.3057V6.27422H98.6031Z" fill="#1B1F3B"/>
<path d="M116.786 21.8945H115.052C114.035 21.8945 113.3 21.6872 112.848 21.2538C112.395 20.8205 112.169 20.1986 112.169 19.3884C110.982 21.1785 109.268 22.0641 107.007 22.0641C105.254 22.0641 103.86 21.6495 102.805 20.8393C101.75 20.0291 101.222 18.8985 101.222 17.4853C101.222 15.8837 101.787 14.6401 102.937 13.7734C104.067 12.9066 105.725 12.4732 107.911 12.4732H111.849V11.5311C111.849 10.6644 111.548 9.96718 110.926 9.47728C110.323 8.98738 109.475 8.72358 108.401 8.72358C107.44 8.72358 106.649 8.93085 106.046 9.34538C105.424 9.75991 105.047 10.3252 104.934 11.0035H101.693C101.863 9.43959 102.541 8.21483 103.766 7.36692C104.99 6.51901 106.573 6.0668 108.552 6.0668C110.643 6.0668 112.264 6.5567 113.394 7.53651C114.525 8.51632 115.109 9.91066 115.109 11.7384V17.8999C115.109 18.6347 115.448 18.9927 116.145 18.9927H116.786V21.8945ZM107.741 14.9228C106.724 14.9228 105.933 15.13 105.386 15.5257C104.84 15.9214 104.557 16.5055 104.557 17.2781C104.557 17.9564 104.821 18.484 105.33 18.8985C105.857 19.3131 106.554 19.5015 107.459 19.5015C108.815 19.5015 109.889 19.1435 110.643 18.4086C111.397 17.6738 111.793 16.694 111.811 15.488V14.9416H107.741V14.9228Z" fill="#1B1F3B"/>
<defs>
<linearGradient id="paint0_linear_70_398" x1="13.9467" y1="13.9551" x2="19.9092" y2="19.9176" gradientUnits="userSpaceOnUse">
<stop stop-color="#F197FE"/>
<stop offset="0.00648314" stop-color="#F096FE"/>
<stop offset="0.6936" stop-color="#8838E0"/>
<stop offset="1" stop-color="#5F12D4"/>
</linearGradient>
</defs>
</svg>
