<svg width="21" height="24" viewBox="0 0 21 24" fill="none" xmlns="http://www.w3.org/2000/svg">
<g clip-path="url(#clip0_70_430)">
<path d="M14.326 2.85301C14.326 2.85301 14.0575 2.93012 13.6165 3.06506C13.5397 2.81446 13.4247 2.5253 13.2712 2.21687C12.7726 1.25301 12.0247 0.73253 11.1425 0.73253C11.0849 0.73253 11.0274 0.73253 10.9507 0.751807C10.9315 0.713253 10.8932 0.693976 10.874 0.655421C10.4904 0.231325 9.9918 0.038554 9.39728 0.0578311C8.24659 0.0963853 7.09591 0.925301 6.17536 2.40964C5.5233 3.4506 5.02467 4.76145 4.89043 5.78313C3.56714 6.18795 2.64659 6.47711 2.62741 6.49639C1.95618 6.70843 1.937 6.72771 1.86029 7.36386C1.74522 7.84578 1.52588e-05 21.4361 1.52588e-05 21.4361L14.4986 23.9614V2.81446C14.4219 2.83373 14.3644 2.83373 14.326 2.85301ZM10.9699 3.89398C10.2028 4.1253 9.35892 4.39518 8.53426 4.64578C8.7644 3.73976 9.22467 2.83373 9.76166 2.23614C9.97262 2.0241 10.2603 1.77349 10.5863 1.61928C10.9123 2.31325 10.9891 3.25783 10.9699 3.89398ZM9.41645 0.828915C9.68495 0.828915 9.91508 0.886747 10.1069 1.00241C9.80002 1.15663 9.49317 1.40723 9.20549 1.69639C8.47673 2.48675 7.92056 3.72048 7.69043 4.89638C7.00001 5.10843 6.3096 5.32048 5.67673 5.51325C6.07947 3.68193 7.63289 0.886747 9.41645 0.828915ZM7.17262 11.4313C7.24933 12.6651 10.4904 12.9349 10.6822 15.8458C10.8165 18.1398 9.47399 19.7012 7.537 19.8169C5.19728 19.9711 3.91234 18.5831 3.91234 18.5831L4.41097 16.4627C4.41097 16.4627 5.69591 17.4458 6.73152 17.3687C7.40275 17.3301 7.65207 16.7711 7.63289 16.3855C7.537 14.7663 4.89043 14.8626 4.71782 12.2024C4.5644 9.98554 6.02193 7.73012 9.24385 7.51807C10.4904 7.44096 11.1233 7.7494 11.1233 7.7494L10.3945 10.5253C10.3945 10.5253 9.56988 10.1398 8.5918 10.2169C7.17262 10.3133 7.15344 11.2193 7.17262 11.4313ZM11.737 3.66265C11.737 3.08434 11.6603 2.25542 11.3918 1.56145C12.274 1.73494 12.6959 2.71807 12.8877 3.31566C12.5425 3.41205 12.1589 3.52771 11.737 3.66265Z" fill="white"/>
<path d="M14.9781 23.8843L21 22.3807C21 22.3807 18.411 4.78072 18.3918 4.66505C18.3726 4.54939 18.2767 4.47228 18.1809 4.47228C18.085 4.47228 16.3973 4.43373 16.3973 4.43373C16.3973 4.43373 15.3617 3.43132 14.9781 3.04578V23.8843Z" fill="white"/>
</g>
<defs>
<clipPath id="clip0_70_430">
<rect width="21" height="24" fill="white"/>
</clipPath>
</defs>
</svg>
