<svg width="22" height="22" viewBox="0 0 22 22" fill="none" xmlns="http://www.w3.org/2000/svg">
<circle opacity="0.4" cx="11" cy="11" r="10" fill="#A15DEF"/>
<path d="M14.4531 11.3948C14.3016 12.0215 13.5857 12.4644 12.1539 13.3502C10.7697 14.2064 10.0777 14.6346 9.51993 14.4625C9.28934 14.3913 9.07925 14.2562 8.90982 14.07C8.5 13.6198 8.5 12.7465 8.5 11C8.5 9.25345 8.5 8.38018 8.90982 7.92995C9.07925 7.74381 9.28934 7.60868 9.51993 7.53753C10.0777 7.36544 10.7697 7.79357 12.1539 8.64983C13.5857 9.53559 14.3016 9.97846 14.4531 10.6052C14.5156 10.8639 14.5156 11.1361 14.4531 11.3948Z" fill="white"/>
<circle cx="11" cy="11" r="10" stroke="#A15DEF" stroke-width="1.5"/>
<path d="M14.4531 11.3948C14.3016 12.0215 13.5857 12.4644 12.1539 13.3502C10.7697 14.2064 10.0777 14.6346 9.51993 14.4625C9.28934 14.3913 9.07925 14.2562 8.90982 14.07C8.5 13.6198 8.5 12.7465 8.5 11C8.5 9.25345 8.5 8.38018 8.90982 7.92995C9.07925 7.74381 9.28934 7.60868 9.51993 7.53753C10.0777 7.36544 10.7697 7.79357 12.1539 8.64983C13.5857 9.53559 14.3016 9.97846 14.4531 10.6052C14.5156 10.8639 14.5156 11.1361 14.4531 11.3948Z" stroke="#A15DEF" stroke-width="1.5" stroke-linejoin="round"/>
</svg>
