<svg width="20" height="20" viewBox="0 0 20 20" fill="none" xmlns="http://www.w3.org/2000/svg">
<path opacity="0.4" d="M6.40976 16.3467C6.90228 16.3467 7.14854 16.3467 7.37289 16.4299C7.40405 16.4415 7.43477 16.4542 7.46498 16.4681C7.68248 16.5679 7.85661 16.742 8.20488 17.0903C9.00646 17.8918 9.40725 18.2926 9.9004 18.3296C9.96671 18.3346 10.0333 18.3346 10.0996 18.3296C10.5928 18.2926 10.9935 17.8918 11.7951 17.0903C12.1434 16.742 12.3175 16.5679 12.535 16.4681C12.5652 16.4542 12.596 16.4415 12.6271 16.4299C12.8515 16.3467 13.0977 16.3467 13.5902 16.3467H13.6811C14.9377 16.3467 15.566 16.3467 15.9563 15.9563C16.3467 15.566 16.3467 14.9377 16.3467 13.6811V13.5902C16.3467 13.0977 16.3467 12.8514 16.43 12.6271C16.4415 12.5959 16.4542 12.5652 16.4681 12.535C16.5679 12.3175 16.742 12.1434 17.0903 11.7951C17.8919 10.9935 18.2927 10.5927 18.3296 10.0996C18.3346 10.0333 18.3346 9.96669 18.3296 9.90038C18.2927 9.40723 17.8919 9.00644 17.0903 8.20486C16.742 7.85659 16.5679 7.68246 16.4681 7.46495C16.4542 7.43475 16.4415 7.40403 16.43 7.37287C16.3467 7.14852 16.3467 6.90226 16.3467 6.40974V6.31889C16.3467 5.0623 16.3467 4.43401 15.9563 4.04364C15.566 3.65326 14.9377 3.65326 13.6811 3.65326H13.5902C13.0977 3.65326 12.8515 3.65326 12.6271 3.57002C12.596 3.55846 12.5652 3.54574 12.535 3.53188C12.3175 3.4321 12.1434 3.25797 11.7951 2.9097C10.9935 2.10812 10.5928 1.70733 10.0996 1.67037C10.0333 1.6654 9.96671 1.6654 9.9004 1.67037C9.40725 1.70733 9.00646 2.10812 8.20488 2.9097C7.85661 3.25797 7.68248 3.4321 7.46498 3.53188C7.43477 3.54574 7.40405 3.55846 7.37289 3.57002C7.14854 3.65326 6.90228 3.65326 6.40976 3.65326H6.31891C5.06232 3.65326 4.43403 3.65326 4.04366 4.04364C3.65329 4.43401 3.65329 5.0623 3.65329 6.31888V6.40974C3.65329 6.90226 3.65329 7.14852 3.57004 7.37287C3.55848 7.40403 3.54576 7.43475 3.5319 7.46495C3.43212 7.68246 3.25799 7.85659 2.90972 8.20486C2.10814 9.00644 1.70735 9.40723 1.67039 9.90038C1.66543 9.96669 1.66543 10.0333 1.67039 10.0996C1.70735 10.5927 2.10814 10.9935 2.90972 11.7951C3.25799 12.1434 3.43212 12.3175 3.5319 12.535C3.54576 12.5652 3.55848 12.5959 3.57004 12.6271C3.65329 12.8514 3.65329 13.0977 3.65329 13.5902V13.6811C3.65329 14.9377 3.65329 15.566 4.04366 15.9563C4.43403 16.3467 5.06232 16.3467 6.31891 16.3467H6.40976Z" fill="#DAD2FF"/>
<path d="M6.40976 16.3467C6.90228 16.3467 7.14854 16.3467 7.37289 16.4299C7.40405 16.4415 7.43477 16.4542 7.46498 16.4681C7.68248 16.5679 7.85661 16.742 8.20488 17.0903C9.00646 17.8918 9.40725 18.2926 9.9004 18.3296C9.96671 18.3346 10.0333 18.3346 10.0996 18.3296C10.5928 18.2926 10.9935 17.8918 11.7951 17.0903C12.1434 16.742 12.3175 16.5679 12.535 16.4681C12.5652 16.4542 12.596 16.4415 12.6271 16.4299C12.8515 16.3467 13.0977 16.3467 13.5902 16.3467H13.6811C14.9377 16.3467 15.566 16.3467 15.9563 15.9563C16.3467 15.566 16.3467 14.9377 16.3467 13.6811V13.5902C16.3467 13.0977 16.3467 12.8514 16.43 12.6271C16.4415 12.5959 16.4542 12.5652 16.4681 12.535C16.5679 12.3175 16.742 12.1434 17.0903 11.7951C17.8919 10.9935 18.2927 10.5927 18.3296 10.0996C18.3346 10.0333 18.3346 9.96669 18.3296 9.90038C18.2927 9.40723 17.8919 9.00644 17.0903 8.20486C16.742 7.85659 16.5679 7.68246 16.4681 7.46495C16.4542 7.43475 16.4415 7.40403 16.43 7.37287C16.3467 7.14852 16.3467 6.90226 16.3467 6.40974V6.31889C16.3467 5.0623 16.3467 4.43401 15.9563 4.04364C15.566 3.65326 14.9377 3.65327 13.6811 3.65327H13.5902C13.0977 3.65327 12.8515 3.65326 12.6271 3.57002C12.596 3.55846 12.5652 3.54574 12.535 3.53188C12.3175 3.4321 12.1434 3.25797 11.7951 2.9097C10.9935 2.10812 10.5928 1.70733 10.0996 1.67037C10.0333 1.6654 9.96671 1.6654 9.9004 1.67037C9.40725 1.70733 9.00646 2.10812 8.20488 2.9097C7.85661 3.25797 7.68248 3.4321 7.46498 3.53188C7.43477 3.54574 7.40405 3.55846 7.37289 3.57002C7.14854 3.65326 6.90228 3.65327 6.40976 3.65327H6.31891C5.06232 3.65327 4.43403 3.65326 4.04366 4.04364C3.65329 4.43401 3.65329 5.0623 3.65329 6.31888V6.40974C3.65329 6.90226 3.65329 7.14852 3.57004 7.37287C3.55848 7.40403 3.54576 7.43475 3.5319 7.46495C3.43212 7.68246 3.25799 7.85659 2.90972 8.20486C2.10814 9.00644 1.70735 9.40723 1.67039 9.90038C1.66543 9.96669 1.66543 10.0333 1.67039 10.0996C1.70735 10.5927 2.10814 10.9935 2.90972 11.7951C3.25799 12.1434 3.43212 12.3175 3.5319 12.535C3.54576 12.5652 3.55848 12.5959 3.57004 12.6271C3.65329 12.8514 3.65329 13.0977 3.65329 13.5902V13.6811C3.65329 14.9377 3.65329 15.566 4.04366 15.9563C4.43403 16.3467 5.06232 16.3467 6.31891 16.3467H6.40976Z" stroke="#4A10A2" stroke-width="1.5"/>
<path d="M12.5 7.5L7.5 12.5" stroke="#4A10A2" stroke-width="1.5" stroke-linecap="round" stroke-linejoin="round"/>
<path d="M12.5 12.5H12.491M7.50897 7.5H7.5" stroke="#4A10A2" stroke-width="2" stroke-linecap="round" stroke-linejoin="round"/>
</svg>
